<svg width="130" height="130" viewBox="0 0 130 130" fill="none" xmlns="http://www.w3.org/2000/svg">
<path d="M59.7599 92.0834H70.24V70.4167H91.2002V59.5834H70.24V37.9167H59.7599V59.5834H38.7998V70.4167H59.7599V92.0834ZM65 119.167C57.7513 119.167 50.9392 117.767 44.5638 114.969C38.1885 112.08 32.6427 108.198 27.9267 103.323C23.2107 98.448 19.4553 92.7153 16.6606 86.125C13.9533 79.5348 12.5996 72.4931 12.5996 65C12.5996 57.507 13.9533 50.4653 16.6606 43.875C19.4553 37.2848 23.2107 31.5521 27.9267 26.6771C32.6427 21.8021 38.1885 17.9653 44.5638 15.1667C50.9392 12.2778 57.7513 10.8334 65 10.8334C72.2487 10.8334 79.0607 12.2778 85.4361 15.1667C91.8115 17.9653 97.3572 21.8021 102.073 26.6771C106.789 31.5521 110.501 37.2848 113.208 43.875C116.003 50.4653 117.4 57.507 117.4 65C117.4 72.4931 116.003 79.5348 113.208 86.125C110.501 92.7153 106.789 98.448 102.073 103.323C97.3572 108.198 91.8115 112.08 85.4361 114.969C79.0607 117.767 72.2487 119.167 65 119.167ZM65 108.333C76.7027 108.333 86.6151 104.135 94.7372 95.7396C102.859 87.3438 106.92 77.0973 106.92 65C106.92 52.9028 102.859 42.6563 94.7372 34.2605C86.6151 25.8646 76.7027 21.6667 65 21.6667C53.2972 21.6667 43.3848 25.8646 35.2628 34.2605C27.1407 42.6563 23.0797 52.9028 23.0797 65C23.0797 77.0973 27.1407 87.3438 35.2628 95.7396C43.3848 104.135 53.2972 108.333 65 108.333Z" fill="#EE0A0A"/>
</svg>
